<svg id="Capa_1" enable-background="new 0 0 512.159 512.159" height="512" viewBox="0 0 512.159 512.159" width="512" xmlns="http://www.w3.org/2000/svg"><g><g id="Page-1_26_"><g id="_x30_27---Design" transform="translate(-1)"><path id="Shape_152_" d="m61.902 499.609c16.683 16.621 43.665 16.621 60.348 0l66.944-66.91 55.927-55.927 18.031 18.014v.051h.051l24.038 24.038v.068l.068.043 24.038 24.038v.051h.06l24.038 24.038v.06h.06l24.03 24.03.051.068.068.051 10.615 10.615c13.327 13.314 34.92 13.314 48.247 0l84.48-84.48c13.314-13.327 13.314-34.92 0-48.247l-125.15-125.21 87.296-87.296c5.968-5.941 10.367-13.272 12.8-21.333l34.441-113.195c1.882-6.029.27-12.604-4.187-17.078-4.457-4.475-11.025-6.113-17.062-4.255l-113.243 34.442c-8.064 2.429-15.396 6.828-21.333 12.8l-87.296 87.296-125.346-125.312c-13.327-13.314-34.92-13.314-48.247 0l-84.48 84.48c-13.314 13.327-13.314 34.92 0 48.247l10.633 10.633v.051h.051l24.073 24.073v.06h.06l24.064 24.064 24.073 24.073h.043l24.055 24.055v.051h.051l18.065 18.057-122.88 122.88c-16.634 16.674-16.634 43.665 0 60.339zm385.929-349.721-261.846 261.845-36.207-36.207 261.854-261.845zm-273.92 273.92-30.601 30.601-84.48-84.48 30.601-30.601zm317.184-42.411c6.651 6.663 6.651 17.453 0 24.115l-84.48 84.48c-6.662 6.645-17.445 6.645-24.107 0l-4.642-4.642 6.025-5.973c3.334-3.332 3.336-8.736.004-12.07s-8.736-3.336-12.07-.004l-6.033 6.025-12.058-12.126 12.058-12.058c3.332-3.334 3.33-8.738-.004-12.07s-8.738-3.33-12.07.004l-12.058 12.058-12.075-12.066 6.025-6.025c3.234-3.348 3.188-8.671-.104-11.962-3.292-3.292-8.614-3.338-11.962-.104l-6.025 6.025-12.066-12.066 12.058-12.058c2.218-2.143 3.108-5.315 2.327-8.299s-3.111-5.313-6.094-6.094-6.156.109-8.299 2.327l-12.049 12.058-12.075-12.075 6.025-6.025c2.218-2.142 3.108-5.315 2.327-8.299s-3.111-5.313-6.094-6.094-6.156.109-8.299 2.327l-6.025 6.025-12.075-12.066 108.603-108.605zm5.017-364.271-11.29 37.009-25.745-25.737zm-113.254 34.483 57.719-17.579 38.613 38.613-17.57 57.754c-.718 2.206-1.658 4.333-2.807 6.349l-82.313-82.321c2.015-1.158 4.146-2.102 6.358-2.816zm-19.507 13.799 36.207 36.198-261.846 261.854-36.207-36.207zm-226.851 178.577 6.025-6.033c3.234-3.348 3.188-8.671-.104-11.962-3.292-3.292-8.614-3.338-11.962-.104l-6.025 6.033-12.066-12.066 12.058-12.066c2.218-2.143 3.108-5.315 2.327-8.299s-3.111-5.313-6.094-6.094c-2.984-.781-6.156.109-8.299 2.327l-12.058 12.058-12.083-12.066 6.025-6.025c2.218-2.143 3.108-5.315 2.327-8.299s-3.111-5.313-6.094-6.094c-2.984-.781-6.156.109-8.299 2.327l-6.025 6.025-12.058-12.067 12.066-12.066c3.234-3.348 3.188-8.671-.104-11.962-3.292-3.292-8.614-3.338-11.962-.104l-12.066 12.058-12.066-12.066 6.025-6.025c2.218-2.143 3.108-5.315 2.327-8.299s-3.111-5.313-6.094-6.094c-2.984-.781-6.156.109-8.299 2.327l-6.025 6.025-4.642-4.642c-6.651-6.663-6.651-17.453 0-24.115l84.48-84.48c6.662-6.645 17.445-6.645 24.107 0l125.338 125.321-108.605 108.602zm-110.796 159.078 21.069-21.077 84.48 84.48-21.077 21.069c-10.007 9.976-26.199 9.976-36.207 0l-48.265-48.273c-9.994-9.997-9.994-26.202 0-36.199z"/></g></g></g></svg>