<?xml version="1.0" encoding="utf-8"?>
<!-- Generator: Adobe Illustrator 19.1.0, SVG Export Plug-In . SVG Version: 6.00 Build 0)  -->
<svg version="1.1" id="Layer_1" xmlns="http://www.w3.org/2000/svg" xmlns:xlink="http://www.w3.org/1999/xlink" x="0px" y="0px"
	 viewBox="0 0 64 64" enable-background="new 0 0 64 64" xml:space="preserve">
<g id="Speedometer_1_">
	<path d="M6.0000005,39.5c0.5527,0,1-0.4477005,1-1c0-13.7851009,11.214901-25,25-25c13.7852097,0,25,11.2148991,25,25
		c0,0.5522995,0.4473,1,1,1s1-0.4477005,1-1c0-14.8876991-12.1123009-27-27-27s-27,12.1123009-27,27
		C5.0000005,39.0522995,5.4473004,39.5,6.0000005,39.5z"/>
	<path d="M42.8672104,21.6464996c0.2753906-0.4790001,0.1093903-1.0902996-0.3701096-1.3652
		C39.3242073,18.4619007,35.705101,17.5,32.0293007,17.5c-11.5957012,0-21.0293007,9.4204006-21.0293007,21
		c0,0.5522995,0.4473,1,1,1c0.5526991,0,1-0.4477005,1-1c0-10.4766006,8.5360994-19,19.0293007-19
		c3.327198,0,6.6025009,0.8701,9.4735985,2.5165997C41.9794998,22.2896004,42.5918007,22.125,42.8672104,21.6464996z"/>
	<path d="M40.5546989,27.6679993c-0.4618988-0.3071995-1.0811005-0.1826-1.3866997,0.2772999l-6.4367905,9.6550999
		C32.4961014,37.5410004,32.2537003,37.5,32,37.5c-1.6560001,0-3,1.3440018-3,3s1.3439999,3,3,3c1.6559982,0,3-1.3440018,3-3
		c0-0.6733017-0.2302017-1.2886009-0.6052017-1.789299l6.4372025-9.6560001
		C41.1386986,28.5951996,41.014698,27.9741001,40.5546989,27.6679993z"/>
	<path d="M62,44.5H38c-0.5527,0-1,0.4477997-1,1c0,2.7568016-2.2431984,5-5,5c-2.7567902,0-5-2.2431984-5-5
		c0-0.5522003-0.4473-1-1-1h-24c-0.5526999,0-0.9999999,0.4477997-0.9999999,1c0,0.5522995,0.4473,1,0.9999999,1h23.0797997
		c0.4881001,3.3866997,3.4012012,6,6.9202003,6c3.5191002,0,6.4323997-2.6133003,6.920208-6H62c0.5527,0,1-0.4477005,1-1
		C63,44.9477997,62.5527,44.5,62,44.5z"/>
</g>
<g>
</g>
<g>
</g>
<g>
</g>
<g>
</g>
<g>
</g>
<g>
</g>
<g>
</g>
<g>
</g>
<g>
</g>
<g>
</g>
<g>
</g>
<g>
</g>
<g>
</g>
<g>
</g>
<g>
</g>
</svg>
